<svg viewBox="0 135 590 365" xmlns="http://www.w3.org/2000/svg" xmlns:bx="https://boxy-svg.com">
    <path id="triangle-1" d="M 245 180 L 335 330 L 155 330 L 245 180 Z" style="stroke-width: 42;" />
    <path id="triangle-2" d="M 345 180 L 435 330 L 255 330 L 345 180 Z" style="stroke-width: 42;" />
    <path id="triangle-1-background" d="M 295 215.308 L 590 500 L 0 500 L 295 215.308 Z" bx:shape="triangle 0 215.308 590 284.692 0.5 0 1@20f0a295"/>
    <path id="triangle-2-background" d="M 295 135 L 590 500 L 0 500 L 295 135 Z" bx:shape="triangle 0 135 590 365 0.5 0 1@a7d55324"/>
    <path id="text" d="M 31.401 439.496 C 30.728 439.496 30.241 439.346 29.941 439.046 C 29.641 438.746 29.174 438.109 28.541 437.136 L 21.701 426.696 C 21.474 426.323 21.211 426.073 20.911 425.946 C 20.611 425.813 20.311 425.746 20.011 425.746 L 19.061 425.746 C 18.574 425.746 18.208 425.886 17.961 426.166 C 17.721 426.446 17.601 426.886 17.601 427.486 L 17.601 456.046 L 18.161 456.046 L 18.161 427.486 C 18.161 427.186 18.218 426.916 18.331 426.676 C 18.444 426.429 18.688 426.306 19.061 426.306 L 19.901 426.306 C 20.161 426.306 20.394 426.343 20.601 426.416 C 20.808 426.496 21.024 426.723 21.251 427.096 L 28.091 437.416 C 28.764 438.429 29.278 439.123 29.631 439.496 C 29.991 439.869 30.581 440.056 31.401 440.056 C 32.228 440.056 32.818 439.869 33.171 439.496 C 33.524 439.123 34.038 438.429 34.711 437.416 L 41.561 427.096 C 41.781 426.723 41.988 426.496 42.181 426.416 C 42.368 426.343 42.591 426.306 42.851 426.306 L 43.691 426.306 C 44.064 426.306 44.318 426.429 44.451 426.676 C 44.578 426.916 44.641 427.186 44.641 427.486 L 44.641 456.046 L 45.211 456.046 L 45.211 427.486 C 45.211 426.886 45.088 426.446 44.841 426.166 C 44.601 425.886 44.218 425.746 43.691 425.746 L 42.741 425.746 C 42.441 425.746 42.151 425.813 41.871 425.946 C 41.591 426.073 41.338 426.323 41.111 426.696 L 34.261 437.136 C 33.628 438.109 33.161 438.746 32.861 439.046 C 32.561 439.346 32.074 439.496 31.401 439.496 M 22.031 461.096 L 13.671 461.096 C 12.964 461.096 12.451 460.936 12.131 460.616 C 11.811 460.303 11.651 459.789 11.651 459.076 L 11.651 422.716 C 11.651 422.003 11.811 421.489 12.131 421.176 C 12.451 420.856 12.964 420.696 13.671 420.696 L 22.711 420.696 C 23.304 420.696 23.798 420.826 24.191 421.086 C 24.584 421.353 24.951 421.783 25.291 422.376 L 30.341 431.526 C 30.528 431.866 30.684 432.109 30.811 432.256 C 30.944 432.403 31.124 432.476 31.351 432.476 L 31.851 432.476 C 32.078 432.476 32.254 432.403 32.381 432.256 C 32.514 432.109 32.674 431.866 32.861 431.526 L 37.851 422.376 C 38.191 421.783 38.558 421.353 38.951 421.086 C 39.344 420.826 39.841 420.696 40.441 420.696 L 49.531 420.696 C 50.238 420.696 50.751 420.856 51.071 421.176 C 51.391 421.489 51.551 422.003 51.551 422.716 L 51.551 459.076 C 51.551 459.789 51.391 460.303 51.071 460.616 C 50.751 460.936 50.238 461.096 49.531 461.096 L 40.881 461.096 C 40.174 461.096 39.661 460.936 39.341 460.616 C 39.021 460.303 38.861 459.789 38.861 459.076 L 38.861 439.326 L 35.551 445.446 C 35.218 446.079 34.818 446.536 34.351 446.816 C 33.884 447.096 33.294 447.236 32.581 447.236 L 30.341 447.236 C 29.628 447.236 29.038 447.096 28.571 446.816 C 28.104 446.536 27.701 446.079 27.361 445.446 L 24.051 439.326 L 24.051 459.076 C 24.051 459.789 23.891 460.303 23.571 460.616 C 23.258 460.936 22.744 461.096 22.031 461.096 ZM 93.684 450.496 C 93.684 452.216 93.431 453.776 92.924 455.176 C 92.418 456.576 91.521 457.773 90.234 458.766 C 88.941 459.759 87.171 460.536 84.924 461.096 C 82.684 461.656 79.824 461.936 76.344 461.936 C 72.864 461.936 70.001 461.656 67.754 461.096 C 65.514 460.536 63.748 459.759 62.454 458.766 C 61.168 457.773 60.271 456.576 59.764 455.176 C 59.258 453.776 59.004 452.216 59.004 450.496 L 59.004 422.716 C 59.004 422.003 59.164 421.489 59.484 421.176 C 59.798 420.856 60.311 420.696 61.024 420.696 L 69.834 420.696 C 70.548 420.696 71.061 420.856 71.374 421.176 C 71.694 421.489 71.854 422.003 71.854 422.716 L 71.854 448.306 C 71.854 449.053 72.134 449.679 72.694 450.186 C 73.254 450.686 74.508 450.936 76.454 450.936 C 78.434 450.936 79.708 450.686 80.274 450.186 C 80.834 449.679 81.114 449.053 81.114 448.306 L 81.114 422.716 C 81.114 422.003 81.274 421.489 81.594 421.176 C 81.908 420.856 82.421 420.696 83.134 420.696 L 91.664 420.696 C 92.371 420.696 92.884 420.856 93.204 421.176 C 93.524 421.489 93.684 422.003 93.684 422.716 L 93.684 450.496 M 65.174 425.746 L 65.174 449.146 C 65.174 451.393 65.951 453.216 67.504 454.616 C 69.058 456.016 72.024 456.716 76.404 456.716 C 80.778 456.716 83.751 456.016 85.324 454.616 C 86.891 453.216 87.674 451.393 87.674 449.146 L 87.674 425.746 L 87.114 425.746 L 87.114 449.146 C 87.114 451.239 86.368 452.933 84.874 454.226 C 83.374 455.513 80.551 456.156 76.404 456.156 C 72.251 456.156 69.434 455.513 67.954 454.226 C 66.474 452.933 65.734 451.239 65.734 449.146 L 65.734 425.746 L 65.174 425.746 ZM 119.879 461.096 L 102.149 461.096 C 101.442 461.096 100.929 460.936 100.609 460.616 C 100.289 460.303 100.129 459.789 100.129 459.076 L 100.129 452.516 C 100.129 451.803 100.289 451.286 100.609 450.966 C 100.929 450.653 101.442 450.496 102.149 450.496 L 117.249 450.496 C 117.729 450.496 118.092 450.336 118.339 450.016 C 118.579 449.696 118.699 449.313 118.699 448.866 C 118.699 448.226 118.579 447.759 118.339 447.466 C 118.092 447.166 117.729 446.996 117.249 446.956 L 108.829 445.776 C 106.209 445.403 104.105 444.543 102.519 443.196 C 100.925 441.849 100.129 439.606 100.129 436.466 L 100.129 430.576 C 100.129 427.396 101.159 424.953 103.219 423.246 C 105.272 421.546 108.115 420.696 111.749 420.696 L 127.459 420.696 C 128.165 420.696 128.679 420.856 128.999 421.176 C 129.319 421.489 129.479 422.003 129.479 422.716 L 129.479 429.396 C 129.479 430.103 129.319 430.616 128.999 430.936 C 128.679 431.256 128.165 431.416 127.459 431.416 L 114.379 431.416 C 113.892 431.416 113.519 431.573 113.259 431.886 C 112.999 432.206 112.869 432.609 112.869 433.096 C 112.869 433.583 112.999 433.996 113.259 434.336 C 113.519 434.669 113.892 434.856 114.379 434.896 L 122.739 436.016 C 125.359 436.389 127.472 437.249 129.079 438.596 C 130.692 439.943 131.499 442.186 131.499 445.326 L 131.499 451.216 C 131.499 454.396 130.459 456.839 128.379 458.546 C 126.305 460.246 123.472 461.096 119.879 461.096 M 124.429 425.746 L 111.969 425.746 C 110.249 425.746 108.865 426.223 107.819 427.176 C 106.772 428.129 106.249 429.356 106.249 430.856 L 106.249 435.456 C 106.249 436.989 106.555 438.046 107.169 438.626 C 107.789 439.206 108.585 439.589 109.559 439.776 L 121.399 442.186 C 122.445 442.413 123.275 442.853 123.889 443.506 C 124.509 444.159 124.819 445.366 124.819 447.126 L 124.819 450.376 C 124.819 451.876 124.305 453.103 123.279 454.056 C 122.245 455.009 120.869 455.486 119.149 455.486 L 105.179 455.486 L 105.179 456.046 L 119.149 456.046 C 121.055 456.046 122.572 455.513 123.699 454.446 C 124.819 453.379 125.379 452.023 125.379 450.376 L 125.379 447.126 C 125.379 445.179 125.015 443.833 124.289 443.086 C 123.555 442.339 122.629 441.853 121.509 441.626 L 109.669 439.216 C 108.809 439.063 108.115 438.726 107.589 438.206 C 107.069 437.679 106.809 436.763 106.809 435.456 L 106.809 430.856 C 106.809 429.543 107.275 428.456 108.209 427.596 C 109.142 426.736 110.395 426.306 111.969 426.306 L 124.429 426.306 L 124.429 425.746 ZM 138.727 461.096 C 138.02 461.096 137.507 460.936 137.187 460.616 C 136.867 460.303 136.707 459.789 136.707 459.076 L 136.707 452.396 C 136.707 451.689 136.867 451.176 137.187 450.856 C 137.507 450.536 138.02 450.376 138.727 450.376 L 144.287 450.376 L 144.287 431.526 L 138.727 431.526 C 138.02 431.526 137.507 431.366 137.187 431.046 C 136.867 430.733 136.707 430.219 136.707 429.506 L 136.707 422.716 C 136.707 422.003 136.867 421.489 137.187 421.176 C 137.507 420.856 138.02 420.696 138.727 420.696 L 162.637 420.696 C 163.344 420.696 163.857 420.856 164.177 421.176 C 164.497 421.489 164.657 422.003 164.657 422.716 L 164.657 429.506 C 164.657 430.219 164.497 430.733 164.177 431.046 C 163.857 431.366 163.344 431.526 162.637 431.526 L 157.187 431.526 L 157.187 450.376 L 162.637 450.376 C 163.344 450.376 163.857 450.536 164.177 450.856 C 164.497 451.176 164.657 451.689 164.657 452.396 L 164.657 459.076 C 164.657 459.789 164.497 460.303 164.177 460.616 C 163.857 460.936 163.344 461.096 162.637 461.096 L 138.727 461.096 M 159.607 456.046 L 159.607 455.486 L 151.017 455.486 L 151.017 426.306 L 159.607 426.306 L 159.607 425.746 L 141.757 425.746 L 141.757 426.306 L 150.457 426.306 L 150.457 455.486 L 141.757 455.486 L 141.757 456.046 L 159.607 456.046 ZM 190.631 461.096 L 181.541 461.096 C 180.827 461.096 180.314 460.936 180.001 460.616 C 179.681 460.303 179.521 459.789 179.521 459.076 L 179.521 431.526 L 171.271 431.526 C 170.557 431.526 170.044 431.366 169.731 431.046 C 169.411 430.733 169.251 430.219 169.251 429.506 L 169.251 422.716 C 169.251 422.003 169.411 421.489 169.731 421.176 C 170.044 420.856 170.557 420.696 171.271 420.696 L 200.901 420.696 C 201.607 420.696 202.121 420.856 202.441 421.176 C 202.761 421.489 202.921 422.003 202.921 422.716 L 202.921 429.506 C 202.921 430.219 202.761 430.733 202.441 431.046 C 202.121 431.366 201.607 431.526 200.901 431.526 L 192.651 431.526 L 192.651 459.076 C 192.651 459.789 192.491 460.303 192.171 460.616 C 191.851 460.936 191.337 461.096 190.631 461.096 M 185.801 456.046 L 186.361 456.046 L 186.361 426.306 L 197.871 426.306 L 197.871 425.746 L 174.301 425.746 L 174.301 426.306 L 185.801 426.306 L 185.801 456.046 ZM 242.305 450.496 C 242.305 452.216 242.052 453.776 241.545 455.176 C 241.038 456.576 240.142 457.773 238.855 458.766 C 237.562 459.759 235.785 460.536 233.525 461.096 C 231.258 461.656 228.385 461.936 224.905 461.936 C 221.432 461.936 218.552 461.656 216.265 461.096 C 213.985 460.536 212.202 459.759 210.915 458.766 C 209.622 457.773 208.722 456.576 208.215 455.176 C 207.708 453.776 207.455 452.216 207.455 450.496 L 207.455 431.356 C 207.455 429.636 207.708 428.076 208.215 426.676 C 208.722 425.269 209.622 424.063 210.915 423.056 C 212.202 422.043 213.985 421.256 216.265 420.696 C 218.552 420.136 221.432 419.856 224.905 419.856 C 228.385 419.856 231.258 420.136 233.525 420.696 C 235.785 421.256 237.562 422.043 238.855 423.056 C 240.142 424.063 241.038 425.269 241.545 426.676 C 242.052 428.076 242.305 429.636 242.305 431.356 L 242.305 450.496 M 236.185 449.196 L 236.185 432.646 C 236.185 430.406 235.382 428.583 233.775 427.176 C 232.168 425.776 229.175 425.076 224.795 425.076 C 220.422 425.076 217.448 425.776 215.875 427.176 C 214.302 428.583 213.515 430.406 213.515 432.646 L 213.515 449.196 C 213.515 451.443 214.302 453.269 215.875 454.676 C 217.448 456.076 220.422 456.776 224.795 456.776 C 229.175 456.776 232.168 456.076 233.775 454.676 C 235.382 453.269 236.185 451.443 236.185 449.196 M 214.085 449.196 L 214.085 432.646 C 214.085 430.553 214.832 428.859 216.325 427.566 C 217.818 426.279 220.642 425.636 224.795 425.636 C 228.948 425.636 231.792 426.279 233.325 427.566 C 234.858 428.859 235.625 430.553 235.625 432.646 L 235.625 449.196 C 235.625 451.296 234.858 452.989 233.325 454.276 C 231.792 455.569 228.948 456.216 224.795 456.216 C 220.642 456.216 217.818 455.569 216.325 454.276 C 214.832 452.989 214.085 451.296 214.085 449.196 M 220.195 448.476 C 220.195 449.223 220.475 449.846 221.035 450.346 C 221.595 450.853 222.885 451.106 224.905 451.106 C 226.925 451.106 228.218 450.853 228.785 450.346 C 229.345 449.846 229.625 449.223 229.625 448.476 L 229.625 433.376 C 229.625 432.669 229.345 432.063 228.785 431.556 C 228.218 431.049 226.925 430.796 224.905 430.796 C 222.885 430.796 221.595 431.049 221.035 431.556 C 220.475 432.063 220.195 432.669 220.195 433.376 L 220.195 448.476 ZM 260.144 461.096 L 251.444 461.096 C 250.738 461.096 250.224 460.936 249.904 460.616 C 249.584 460.303 249.424 459.789 249.424 459.076 L 249.424 422.716 C 249.424 422.003 249.584 421.489 249.904 421.176 C 250.224 420.856 250.738 420.696 251.444 420.696 L 268.614 420.696 C 273.701 420.696 277.181 421.706 279.054 423.726 C 280.921 425.746 281.854 428.383 281.854 431.636 L 281.854 438.816 C 281.854 442.076 280.921 444.716 279.054 446.736 C 277.181 448.756 273.701 449.766 268.614 449.766 L 262.164 449.766 L 262.164 459.076 C 262.164 459.789 262.004 460.303 261.684 460.616 C 261.364 460.936 260.851 461.096 260.144 461.096 M 267.834 444.996 C 269.588 444.996 271.018 444.809 272.124 444.436 C 273.224 444.056 274.074 443.539 274.674 442.886 C 275.274 442.233 275.688 441.449 275.914 440.536 C 276.134 439.616 276.244 438.613 276.244 437.526 L 276.244 433.376 C 276.244 432.289 276.134 431.279 275.914 430.346 C 275.688 429.413 275.274 428.609 274.674 427.936 C 274.074 427.263 273.224 426.729 272.124 426.336 C 271.018 425.943 269.588 425.746 267.834 425.746 L 255.714 425.746 L 255.714 456.046 L 256.274 456.046 L 256.274 444.996 L 267.834 444.996 M 256.274 444.436 L 256.274 426.306 L 267.834 426.306 C 269.474 426.306 270.811 426.486 271.844 426.846 C 272.871 427.199 273.664 427.693 274.224 428.326 C 274.784 428.966 275.168 429.716 275.374 430.576 C 275.581 431.436 275.684 432.369 275.684 433.376 L 275.684 437.526 C 275.684 438.539 275.581 439.466 275.374 440.306 C 275.168 441.146 274.784 441.876 274.224 442.496 C 273.664 443.116 272.871 443.593 271.844 443.926 C 270.811 444.266 269.474 444.436 267.834 444.436 L 256.274 444.436 M 262.054 431.186 L 262.054 439.666 L 267.104 439.666 C 268.184 439.666 268.894 439.383 269.234 438.816 C 269.568 438.256 269.734 437.623 269.734 436.916 L 269.734 433.936 C 269.734 433.229 269.568 432.596 269.234 432.036 C 268.894 431.469 268.184 431.186 267.104 431.186 L 262.054 431.186 Z"
        transform="matrix(1.5901700258255005, 0, 0, 1.6411030292510986, 63.183013916015625, -293.9808044433594)"/>
</svg>
