<?xml version="1.0" encoding="utf-8"?>
<svg viewBox="0 135 590 365" xmlns="http://www.w3.org/2000/svg" xmlns:bx="https://boxy-svg.com">
  <path id="triangle-2-background" d="M 295 135 L 590 500 L 0 500 L 295 135 Z" style="opacity: 0.1;" bx:shape="triangle 0 135 590 365 0.5 0 1@a7d55324"/>
  <path id="triangle-1-background" d="M 295 215.308 L 590 500 L 0 500 L 295 215.308 Z" style="opacity: 0.1;" bx:shape="triangle 0 215.308 590 284.692 0.5 0 1@20f0a295"/>
  <path id="triangle-1" d="M 245 180 L 335 330 L 155 330 L 245 180 Z" style="stroke-opacity: 0.7; fill: none; stroke-width: 42; stroke: currentColor;"/>
  <path id="triangle-2" d="M 345 180 L 435 330 L 255 330 L 345 180 Z" style="fill: none; stroke-opacity: 0.7; stroke-width: 42; stroke: currentColor;"/>
  <path id="text-start" d="M 113.116 427.277 C 112.046 427.277 111.271 427.031 110.794 426.539 C 110.317 426.047 109.575 425.001 108.568 423.404 L 97.691 406.271 C 97.33 405.659 96.912 405.249 96.435 405.04 C 95.958 404.822 95.481 404.712 95.004 404.712 L 93.493 404.712 C 92.719 404.712 92.137 404.942 91.744 405.401 C 91.362 405.861 91.172 406.583 91.172 407.568 L 91.172 454.438 L 92.062 454.438 L 92.062 407.568 C 92.062 407.075 92.153 406.632 92.332 406.238 C 92.512 405.833 92.9 405.631 93.493 405.631 L 94.829 405.631 C 95.242 405.631 95.613 405.692 95.942 405.812 C 96.271 405.943 96.615 406.316 96.976 406.928 L 107.852 423.864 C 108.923 425.526 109.74 426.665 110.301 427.277 C 110.874 427.89 111.812 428.196 113.116 428.196 C 114.431 428.196 115.369 427.89 115.931 427.277 C 116.492 426.665 117.309 425.526 118.379 423.864 L 129.272 406.928 C 129.622 406.316 129.951 405.943 130.258 405.812 C 130.555 405.692 130.91 405.631 131.323 405.631 L 132.659 405.631 C 133.252 405.631 133.656 405.833 133.868 406.238 C 134.07 406.632 134.17 407.075 134.17 407.568 L 134.17 454.438 L 135.076 454.438 L 135.076 407.568 C 135.076 406.583 134.881 405.861 134.488 405.401 C 134.106 404.942 133.497 404.712 132.659 404.712 L 131.148 404.712 C 130.671 404.712 130.21 404.822 129.765 405.04 C 129.32 405.249 128.917 405.659 128.556 406.271 L 117.664 423.404 C 116.657 425.001 115.915 426.047 115.438 426.539 C 114.961 427.031 114.186 427.277 113.116 427.277 M 316.985 454.438 L 316.985 453.519 L 303.326 453.519 L 303.326 405.631 L 316.985 405.631 L 316.985 404.712 L 288.601 404.712 L 288.601 405.631 L 302.435 405.631 L 302.435 453.519 L 288.601 453.519 L 288.601 454.438 L 316.985 454.438 Z M 283.783 462.725 C 282.658 462.725 281.843 462.463 281.334 461.938 C 280.825 461.424 280.57 460.58 280.57 459.41 L 280.57 448.448 C 280.57 447.287 280.825 446.445 281.334 445.92 C 281.843 445.395 282.658 445.133 283.783 445.133 L 292.624 445.133 L 292.624 414.198 L 283.783 414.198 C 282.658 414.198 281.843 413.935 281.334 413.41 C 280.825 412.896 280.57 412.053 280.57 410.883 L 280.57 399.74 C 280.57 398.57 280.825 397.726 281.334 397.212 C 281.843 396.687 282.658 396.425 283.783 396.425 L 321.803 396.425 C 322.928 396.425 323.743 396.687 324.252 397.212 C 324.761 397.726 325.016 398.57 325.016 399.74 L 325.016 410.883 C 325.016 412.053 324.761 412.896 324.252 413.41 C 323.743 413.935 322.928 414.198 321.803 414.198 L 313.137 414.198 L 313.137 445.133 L 321.803 445.133 C 322.928 445.133 323.743 445.395 324.252 445.92 C 324.761 446.445 325.016 447.287 325.016 448.448 L 325.016 459.41 C 325.016 460.58 324.761 461.424 324.252 461.938 C 323.743 462.463 322.928 462.725 321.803 462.725 L 283.783 462.725 M 261.046 404.712 L 241.233 404.712 C 238.498 404.712 236.297 405.495 234.634 407.059 C 232.969 408.623 232.137 410.637 232.137 413.098 L 232.137 420.647 C 232.137 423.163 232.624 424.898 233.6 425.85 C 234.586 426.801 235.852 427.43 237.4 427.737 L 256.228 431.692 C 257.891 432.065 259.211 432.787 260.188 433.858 C 261.173 434.93 261.666 436.911 261.666 439.799 L 261.666 445.133 C 261.666 447.594 260.849 449.608 259.218 451.172 C 257.573 452.736 255.385 453.519 252.65 453.519 L 230.436 453.519 L 230.436 454.438 L 252.65 454.438 C 255.681 454.438 258.093 453.563 259.885 451.812 C 261.666 450.061 262.557 447.836 262.557 445.133 L 262.557 439.799 C 262.557 436.604 261.978 434.395 260.824 433.169 C 259.656 431.943 258.184 431.145 256.403 430.773 L 237.575 426.818 C 236.208 426.567 235.104 426.014 234.268 425.16 C 233.441 424.296 233.027 422.792 233.027 420.647 L 233.027 413.098 C 233.027 410.944 233.769 409.16 235.254 407.748 C 236.737 406.337 238.73 405.631 241.233 405.631 L 261.046 405.631 L 261.046 404.712 Z M 253.811 462.725 L 225.617 462.725 C 224.493 462.725 223.677 462.463 223.168 461.938 C 222.66 461.424 222.405 460.58 222.405 459.41 L 222.405 448.645 C 222.405 447.474 222.66 446.626 223.168 446.101 C 223.677 445.587 224.493 445.33 225.617 445.33 L 249.629 445.33 C 250.392 445.33 250.969 445.067 251.362 444.542 C 251.744 444.017 251.935 443.388 251.935 442.655 C 251.935 441.604 251.744 440.838 251.362 440.357 C 250.969 439.865 250.392 439.586 249.629 439.52 L 236.24 437.584 C 232.073 436.971 228.728 435.56 226.206 433.35 C 223.671 431.139 222.405 427.458 222.405 422.305 L 222.405 412.639 C 222.405 407.42 224.043 403.411 227.319 400.609 C 230.583 397.82 235.104 396.425 240.883 396.425 L 265.865 396.425 C 266.987 396.425 267.805 396.687 268.313 397.212 C 268.822 397.726 269.077 398.57 269.077 399.74 L 269.077 410.702 C 269.077 411.863 268.822 412.704 268.313 413.23 C 267.805 413.755 266.987 414.017 265.865 414.017 L 245.065 414.017 C 244.291 414.017 243.698 414.275 243.284 414.789 C 242.871 415.314 242.664 415.975 242.664 416.774 C 242.664 417.574 242.871 418.251 243.284 418.809 C 243.698 419.356 244.291 419.663 245.065 419.728 L 258.359 421.566 C 262.525 422.179 265.885 423.59 268.441 425.8 C 271.006 428.011 272.289 431.692 272.289 436.845 L 272.289 446.511 C 272.289 451.73 270.635 455.739 267.327 458.54 C 264.029 461.33 259.524 462.725 253.811 462.725 M 166.821 404.712 L 166.821 443.114 C 166.821 446.802 168.056 449.793 170.526 452.091 C 172.997 454.388 177.713 455.537 184.678 455.537 C 191.634 455.537 196.361 454.388 198.863 452.091 C 201.354 449.793 202.6 446.802 202.6 443.114 L 202.6 404.712 L 201.709 404.712 L 201.709 443.114 C 201.709 446.549 200.523 449.329 198.147 451.451 C 195.762 453.563 191.273 454.618 184.678 454.618 C 178.074 454.618 173.595 453.563 171.241 451.451 C 168.888 449.329 167.711 446.549 167.711 443.114 L 167.711 404.712 L 166.821 404.712 Z M 212.156 445.33 C 212.156 448.152 211.754 450.712 210.948 453.01 C 210.143 455.307 208.717 457.272 206.67 458.901 C 204.614 460.531 201.8 461.806 198.227 462.725 C 194.665 463.644 190.117 464.104 184.583 464.104 C 179.049 464.104 174.497 463.644 170.923 462.725 C 167.361 461.806 164.553 460.531 162.495 458.901 C 160.451 457.272 159.024 455.307 158.218 453.01 C 157.413 450.712 157.009 448.152 157.009 445.33 L 157.009 399.74 C 157.009 398.57 157.264 397.726 157.773 397.212 C 158.272 396.687 159.088 396.425 160.222 396.425 L 174.231 396.425 C 175.366 396.425 176.182 396.687 176.68 397.212 C 177.189 397.726 177.443 398.57 177.443 399.74 L 177.443 441.736 C 177.443 442.961 177.888 443.989 178.779 444.821 C 179.669 445.641 181.663 446.052 184.758 446.052 C 187.906 446.052 189.932 445.641 190.832 444.821 C 191.723 443.989 192.168 442.961 192.168 441.736 L 192.168 399.74 C 192.168 398.57 192.423 397.726 192.931 397.212 C 193.431 396.687 194.246 396.425 195.38 396.425 L 208.944 396.425 C 210.069 396.425 210.884 396.687 211.393 397.212 C 211.902 397.726 212.156 398.57 212.156 399.74 L 212.156 445.33 M 98.216 462.725 L 84.922 462.725 C 83.798 462.725 82.982 462.463 82.473 461.938 C 81.965 461.424 81.71 460.58 81.71 459.41 L 81.71 399.74 C 81.71 398.57 81.965 397.726 82.473 397.212 C 82.982 396.687 83.798 396.425 84.922 396.425 L 99.297 396.425 C 100.24 396.425 101.026 396.638 101.651 397.065 C 102.276 397.503 102.859 398.209 103.4 399.182 L 111.43 414.198 C 111.728 414.756 111.976 415.155 112.178 415.396 C 112.389 415.637 112.675 415.757 113.036 415.757 L 113.832 415.757 C 114.192 415.757 114.472 415.637 114.674 415.396 C 114.886 415.155 115.14 414.756 115.438 414.198 L 123.373 399.182 C 123.913 398.209 124.497 397.503 125.122 397.065 C 125.747 396.638 126.537 396.425 127.491 396.425 L 141.946 396.425 C 143.07 396.425 143.886 396.687 144.395 397.212 C 144.903 397.726 145.158 398.57 145.158 399.74 L 145.158 459.41 C 145.158 460.58 144.903 461.424 144.395 461.938 C 143.886 462.463 143.07 462.725 141.946 462.725 L 128.191 462.725 C 127.067 462.725 126.251 462.463 125.742 461.938 C 125.233 461.424 124.979 460.58 124.979 459.41 L 124.979 426.998 L 119.715 437.042 C 119.186 438.081 118.55 438.831 117.807 439.29 C 117.064 439.75 116.126 439.98 114.992 439.98 L 111.43 439.98 C 110.297 439.98 109.358 439.75 108.616 439.29 C 107.873 438.831 107.232 438.081 106.692 437.042 L 101.428 426.998 L 101.428 459.41 C 101.428 460.58 101.174 461.424 100.665 461.938 C 100.167 462.463 99.35 462.725 98.216 462.725 Z" style="fill: currentColor; fill-opacity: 0.7;"/>
  <path id="text-end" d="M 479.893 413.64 L 479.893 427.556 L 487.924 427.556 C 489.641 427.556 490.77 427.092 491.311 426.161 C 491.842 425.242 492.106 424.204 492.106 423.043 L 492.106 418.153 C 492.106 416.993 491.842 415.954 491.311 415.035 C 490.77 414.104 489.641 413.64 487.924 413.64 L 479.893 413.64 Z M 470.702 435.384 L 470.702 405.631 L 489.085 405.631 C 491.693 405.631 493.819 405.927 495.461 406.517 C 497.094 407.097 498.355 407.907 499.246 408.946 C 500.136 409.997 500.747 411.227 501.074 412.639 C 501.404 414.05 501.567 415.581 501.567 417.234 L 501.567 424.044 C 501.567 425.707 501.404 427.228 501.074 428.607 C 500.747 429.985 500.136 431.183 499.246 432.201 C 498.355 433.218 497.094 434.001 495.461 434.547 C 493.819 435.105 491.693 435.384 489.085 435.384 L 470.702 435.384 M 489.085 436.303 C 491.874 436.303 494.148 435.997 495.906 435.384 C 497.656 434.761 499.007 433.912 499.961 432.841 C 500.915 431.769 501.574 430.482 501.933 428.984 C 502.283 427.474 502.458 425.828 502.458 424.044 L 502.458 417.234 C 502.458 415.45 502.283 413.792 501.933 412.261 C 501.574 410.73 500.915 409.411 499.961 408.306 C 499.007 407.202 497.656 406.325 495.906 405.68 C 494.148 405.036 491.874 404.712 489.085 404.712 L 469.812 404.712 L 469.812 454.438 L 470.702 454.438 L 470.702 436.303 L 489.085 436.303 M 476.856 462.725 L 463.022 462.725 C 461.899 462.725 461.082 462.463 460.573 461.938 C 460.064 461.424 459.81 460.58 459.81 459.41 L 459.81 399.74 C 459.81 398.57 460.064 397.726 460.573 397.212 C 461.082 396.687 461.899 396.425 463.022 396.425 L 490.325 396.425 C 498.414 396.425 503.948 398.082 506.926 401.397 C 509.895 404.712 511.379 409.04 511.379 414.378 L 511.379 426.161 C 511.379 431.511 509.895 435.844 506.926 439.159 C 503.948 442.474 498.414 444.132 490.325 444.132 L 480.068 444.132 L 480.068 459.41 C 480.068 460.58 479.814 461.424 479.305 461.938 C 478.796 462.463 477.98 462.725 476.856 462.725 M 413.331 442.015 C 413.331 443.24 413.776 444.263 414.666 445.083 C 415.557 445.915 417.608 446.331 420.82 446.331 C 424.032 446.331 426.088 445.915 426.99 445.083 C 427.881 444.263 428.326 443.24 428.326 442.015 L 428.326 417.234 C 428.326 416.074 427.881 415.079 426.99 414.247 C 426.088 413.415 424.032 413 420.82 413 C 417.608 413 415.557 413.415 414.666 414.247 C 413.776 415.079 413.331 416.074 413.331 417.234 L 413.331 442.015 Z M 403.615 443.196 L 403.615 416.036 C 403.615 412.601 404.802 409.821 407.177 407.699 C 409.551 405.587 414.041 404.532 420.645 404.532 C 427.249 404.532 431.772 405.587 434.209 407.699 C 436.647 409.821 437.867 412.601 437.867 416.036 L 437.867 443.196 C 437.867 446.642 436.647 449.421 434.209 451.533 C 431.772 453.655 427.249 454.717 420.645 454.717 C 414.041 454.717 409.551 453.655 407.177 451.533 C 404.802 449.421 403.615 446.642 403.615 443.196 M 438.757 443.196 L 438.757 416.036 C 438.757 412.36 437.48 409.368 434.925 407.059 C 432.37 404.761 427.61 403.613 420.645 403.613 C 413.691 403.613 408.962 404.761 406.461 407.059 C 403.96 409.368 402.708 412.36 402.708 416.036 L 402.708 443.196 C 402.708 446.884 403.96 449.88 406.461 452.189 C 408.962 454.487 413.691 455.636 420.645 455.636 C 427.61 455.636 432.37 454.487 434.925 452.189 C 437.48 449.88 438.757 446.884 438.757 443.196 M 448.489 445.33 C 448.489 448.152 448.087 450.712 447.281 453.01 C 446.474 455.307 445.05 457.272 443.003 458.901 C 440.947 460.531 438.121 461.806 434.527 462.725 C 430.923 463.644 426.354 464.104 420.82 464.104 C 415.298 464.104 410.718 463.644 407.081 462.725 C 403.456 461.806 400.62 460.531 398.574 458.901 C 396.518 457.272 395.086 455.307 394.28 453.01 C 393.474 450.712 393.072 448.152 393.072 445.33 L 393.072 413.919 C 393.072 411.096 393.474 408.536 394.28 406.238 C 395.086 403.929 396.518 401.95 398.574 400.298 C 400.62 398.635 403.456 397.344 407.081 396.425 C 410.718 395.506 415.298 395.046 420.82 395.046 C 426.354 395.046 430.923 395.506 434.527 396.425 C 438.121 397.344 440.947 398.635 443.003 400.298 C 445.05 401.95 446.474 403.929 447.281 406.238 C 448.087 408.536 448.489 411.096 448.489 413.919 L 448.489 445.33 M 358.638 454.438 L 359.529 454.438 L 359.529 405.631 L 377.832 405.631 L 377.832 404.712 L 340.351 404.712 L 340.351 405.631 L 358.638 405.631 L 358.638 454.438 Z M 366.319 462.725 L 351.864 462.725 C 350.729 462.725 349.913 462.463 349.415 461.938 C 348.906 461.424 348.652 460.58 348.652 459.41 L 348.652 414.198 L 335.533 414.198 C 334.398 414.198 333.582 413.935 333.084 413.41 C 332.575 412.896 332.321 412.053 332.321 410.883 L 332.321 399.74 C 332.321 398.57 332.575 397.726 333.084 397.212 C 333.582 396.687 334.398 396.425 335.533 396.425 L 382.65 396.425 C 383.772 396.425 384.59 396.687 385.099 397.212 C 385.607 397.726 385.862 398.57 385.862 399.74 L 385.862 410.883 C 385.862 412.053 385.607 412.896 385.099 413.41 C 384.59 413.935 383.772 414.198 382.65 414.198 L 369.531 414.198 L 369.531 459.41 C 369.531 460.58 369.276 461.424 368.768 461.938 C 368.259 462.463 367.441 462.725 366.319 462.725" style="fill: currentColor; fill-opacity: 0.7;"/>
</svg>
